<svg width="40" height="40" viewBox="0 0 40 40" fill="none" xmlns="http://www.w3.org/2000/svg">
<path fill-rule="evenodd" clip-rule="evenodd" d="M35 20.0001C35 11.7162 28.2847 5 19.9999 5C11.7153 5 5 11.7162 5 20.0001C5 28.2847 11.7152 35 19.9999 35C28.2847 35 35 28.2848 35 20.0001ZM10 20C10 14.4823 14.4823 10 20 10C25.5177 10 30 14.4823 30 20C30 25.5177 25.5177 30 20 30C14.4823 30 10 25.5177 10 20ZM29.1304 20C29.1304 14.9522 25.0478 10.8696 20 10.8696C14.9522 10.8696 10.8696 14.9522 10.8696 20C10.8696 23.8345 13.2266 27.1098 16.5718 28.4638C16.5017 27.7332 16.4561 26.7519 16.6262 26.0233C16.7959 25.2941 17.7225 21.3765 17.7225 21.3765C17.7225 21.3765 17.4423 20.8162 17.4423 19.989C17.4423 18.6889 18.1958 17.7191 19.1338 17.7191C19.9316 17.7191 20.3167 18.3177 20.3167 19.0353C20.3167 19.5483 20.1082 20.2233 19.8888 20.9338C19.7649 21.3347 19.6376 21.7468 19.5423 22.1476C19.3219 23.0784 20.0089 23.8375 20.9265 23.8375C22.5879 23.8375 23.8646 22.0853 23.8646 19.5567C23.8646 17.3186 22.2564 15.7532 19.9601 15.7532C17.3006 15.7532 15.7396 17.7487 15.7396 19.8106C15.7396 20.6138 16.0495 21.475 16.436 21.9438C16.5122 22.0365 16.5232 22.1179 16.5005 22.2121C16.4575 22.3916 16.3823 22.6964 16.3229 22.937C16.2846 23.0923 16.2529 23.2209 16.2407 23.2719C16.2 23.4434 16.105 23.4791 15.9282 23.3967C14.7604 22.8531 14.0311 21.1462 14.0311 19.775C14.0311 16.8264 16.1725 14.1185 20.2072 14.1185C23.4502 14.1185 25.9706 16.4289 25.9706 19.5177C25.9706 22.7394 23.9383 25.332 21.1192 25.332C20.1719 25.332 19.2821 24.84 18.9776 24.2587C18.9776 24.2587 18.509 26.0434 18.395 26.481C18.2032 27.219 17.7203 28.1128 17.3463 28.7381C18.186 28.9922 19.0767 29.1304 20 29.1304C25.0478 29.1304 29.1304 25.0478 29.1304 20Z" fill="#F8FDFF"/>
</svg>
